<svg xmlns="http://www.w3.org/2000/svg" xmlns:xlink="http://www.w3.org/1999/xlink" width="500" zoomAndPan="magnify" viewBox="0 0 375 374.999991" height="500" preserveAspectRatio="xMidYMid meet" version="1.0"><defs><g/><clipPath id="1e051cb383"><path d="M 118.128906 99.101562 L 256.878906 99.101562 L 256.878906 237.851562 L 118.128906 237.851562 Z M 118.128906 99.101562 " clip-rule="nonzero"/></clipPath></defs><rect x="-37.5" width="450" fill="#ffffff" y="-37.499999" height="449.999989" fill-opacity="1"/><rect x="-37.5" width="450" fill="#ffffff" y="-37.499999" height="449.999989" fill-opacity="1"/><rect x="-37.5" width="450" fill="#000000" y="-37.499999" height="449.999989" fill-opacity="1"/><g clip-path="url(#1e051cb383)"><path fill="#ffffff" d="M 253.949219 191.886719 C 252.496094 191.886719 251.320312 190.707031 251.320312 189.25 L 251.320312 108.367188 L 206.675781 153.125 C 205.644531 154.15625 203.980469 154.15625 202.953125 153.125 C 201.929688 152.09375 201.929688 150.425781 202.953125 149.394531 L 252.089844 100.136719 C 252.839844 99.382812 253.972656 99.15625 254.957031 99.566406 C 255.9375 99.972656 256.578125 100.933594 256.578125 102 L 256.578125 189.25 C 256.578125 190.707031 255.402344 191.886719 253.949219 191.886719 Z M 121.074219 237.851562 C 119.621094 237.851562 118.441406 236.671875 118.441406 235.214844 L 118.441406 143.289062 C 118.441406 142.222656 119.082031 141.257812 120.066406 140.851562 C 121.050781 140.441406 122.179688 140.667969 122.933594 141.421875 L 168.78125 187.386719 C 169.808594 188.417969 169.808594 190.085938 168.78125 191.117188 C 167.753906 192.144531 166.085938 192.144531 165.058594 191.117188 L 123.703125 149.652344 L 123.703125 235.214844 C 123.703125 236.671875 122.523438 237.851562 121.074219 237.851562 Z M 253.949219 237.851562 C 253.277344 237.851562 252.601562 237.59375 252.089844 237.078125 L 119.214844 103.867188 C 118.1875 102.835938 118.1875 101.167969 119.214844 100.136719 C 120.242188 99.109375 121.90625 99.109375 122.933594 100.136719 L 255.808594 233.351562 C 256.835938 234.378906 256.835938 236.050781 255.808594 237.078125 C 255.292969 237.59375 254.621094 237.851562 253.949219 237.851562 " fill-opacity="1" fill-rule="nonzero"/></g><g fill="#fffbfa" fill-opacity="1"><g transform="translate(162.83434, 261.54845)"><g><path d="M 6.996094 0 C 7.183594 0 7.277344 -0.09375 7.277344 -0.28125 L 7.277344 -2.097656 C 7.277344 -2.28125 7.183594 -2.378906 6.996094 -2.378906 L 3.832031 -2.378906 L 3.832031 -10.214844 C 3.832031 -10.402344 3.738281 -10.496094 3.554688 -10.496094 L 1.320312 -10.496094 C 1.132812 -10.496094 1.039062 -10.402344 1.039062 -10.214844 L 1.039062 -0.28125 C 1.039062 -0.09375 1.132812 0 1.320312 0 Z M 6.996094 0 "/></g></g></g><g fill="#fffbfa" fill-opacity="1"><g transform="translate(181.604592, 261.54845)"><g><path d="M 5.207031 0 C 5.386719 0 5.488281 -0.09375 5.488281 -0.28125 L 5.488281 -8.117188 L 7.597656 -8.117188 C 7.785156 -8.117188 7.878906 -8.214844 7.878906 -8.398438 L 7.878906 -10.214844 C 7.878906 -10.402344 7.785156 -10.496094 7.597656 -10.496094 L 0.558594 -10.496094 C 0.375 -10.496094 0.28125 -10.402344 0.28125 -10.214844 L 0.28125 -8.398438 C 0.28125 -8.214844 0.375 -8.117188 0.558594 -8.117188 L 2.671875 -8.117188 L 2.671875 -0.28125 C 2.671875 -0.09375 2.773438 0 2.953125 0 Z M 5.207031 0 "/></g></g></g><g fill="#fffbfa" fill-opacity="1"><g transform="translate(200.976071, 261.54845)"><g><path d="M 4.832031 0 C 8.816406 0 10.550781 -1.960938 10.550781 -5.234375 C 10.550781 -8.5625 8.761719 -10.496094 4.832031 -10.496094 L 1.320312 -10.496094 C 1.132812 -10.496094 1.039062 -10.402344 1.039062 -10.214844 L 1.039062 -0.28125 C 1.039062 -0.09375 1.132812 0 1.320312 0 Z M 3.859375 -8.117188 L 4.84375 -8.117188 C 6.8125 -8.117188 7.757812 -7.09375 7.757812 -5.277344 C 7.757812 -3.457031 6.8125 -2.378906 4.84375 -2.378906 L 3.859375 -2.378906 Z M 3.859375 -8.117188 "/></g></g></g><g fill="#fffbfa" fill-opacity="1"><g transform="translate(160.480163, 274.029634)"><g><path d="M 2.933594 0.0898438 C 4.089844 0.0898438 5.03125 -0.589844 5.335938 -1.644531 L 4.886719 -1.644531 C 4.613281 -0.832031 3.855469 -0.335938 2.941406 -0.335938 C 1.742188 -0.335938 0.882812 -1.195312 0.882812 -2.449219 C 0.882812 -3.703125 1.742188 -4.5625 2.941406 -4.5625 C 3.835938 -4.5625 4.5625 -4.089844 4.84375 -3.3125 L 5.292969 -3.3125 C 4.96875 -4.339844 4.054688 -4.992188 2.933594 -4.992188 C 1.492188 -4.992188 0.449219 -3.941406 0.449219 -2.449219 C 0.449219 -0.960938 1.492188 0.0898438 2.933594 0.0898438 Z M 2.933594 0.0898438 "/></g></g></g><g fill="#fffbfa" fill-opacity="1"><g transform="translate(169.034393, 274.029634)"><g><path d="M 2.976562 0.0898438 C 4.472656 0.0898438 5.503906 -0.953125 5.503906 -2.449219 C 5.503906 -3.949219 4.472656 -4.992188 2.976562 -4.992188 C 1.484375 -4.992188 0.449219 -3.949219 0.449219 -2.449219 C 0.449219 -0.953125 1.484375 0.0898438 2.976562 0.0898438 Z M 0.882812 -2.449219 C 0.882812 -3.710938 1.734375 -4.5625 2.976562 -4.5625 C 4.222656 -4.5625 5.074219 -3.710938 5.074219 -2.449219 C 5.074219 -1.195312 4.222656 -0.335938 2.976562 -0.335938 C 1.734375 -0.335938 0.882812 -1.195312 0.882812 -2.449219 Z M 0.882812 -2.449219 "/></g></g></g><g fill="#fffbfa" fill-opacity="1"><g transform="translate(177.784626, 274.029634)"><g><path d="M 0.792969 0 L 1.21875 0 L 1.21875 -4.117188 L 3.050781 -1.363281 L 3.402344 -1.363281 L 5.234375 -4.117188 L 5.234375 0 L 5.65625 0 L 5.65625 -4.898438 L 5.265625 -4.898438 L 3.226562 -1.835938 L 1.191406 -4.898438 L 0.792969 -4.898438 Z M 0.792969 0 "/></g></g></g><g fill="#fffbfa" fill-opacity="1"><g transform="translate(187.031874, 274.029634)"><g><path d="M 0.792969 0 L 1.21875 0 L 1.21875 -1.679688 L 2.34375 -1.679688 C 3.480469 -1.679688 4.152344 -2.273438 4.152344 -3.289062 C 4.152344 -4.304688 3.480469 -4.898438 2.34375 -4.898438 L 0.792969 -4.898438 Z M 1.21875 -2.070312 L 1.21875 -4.492188 L 2.339844 -4.492188 C 3.253906 -4.492188 3.722656 -4.082031 3.722656 -3.28125 C 3.722656 -2.484375 3.253906 -2.070312 2.339844 -2.070312 Z M 1.21875 -2.070312 "/></g></g></g><g fill="#fffbfa" fill-opacity="1"><g transform="translate(194.312064, 274.029634)"><g><path d="M 0.152344 0 L 0.609375 0 L 1.113281 -1.230469 L 3.660156 -1.230469 L 4.171875 0 L 4.621094 0 L 2.589844 -4.898438 L 2.183594 -4.898438 Z M 1.28125 -1.625 L 2.386719 -4.320312 L 3.5 -1.625 Z M 1.28125 -1.625 "/></g></g></g><g fill="#fffbfa" fill-opacity="1"><g transform="translate(201.893264, 274.029634)"><g><path d="M 0.792969 0 L 1.210938 0 L 1.210938 -4.171875 L 4.191406 0 L 4.59375 0 L 4.59375 -4.898438 L 4.171875 -4.898438 L 4.171875 -0.734375 L 1.191406 -4.898438 L 0.792969 -4.898438 Z M 0.792969 0 "/></g></g></g><g fill="#fffbfa" fill-opacity="1"><g transform="translate(210.076478, 274.029634)"><g><path d="M 2.007812 0 L 2.429688 0 L 2.429688 -1.8125 L 4.285156 -4.898438 L 3.800781 -4.898438 L 2.226562 -2.253906 L 0.644531 -4.898438 L 0.152344 -4.898438 L 2.007812 -1.800781 Z M 2.007812 0 "/></g></g></g></svg>